<?xml version="1.0" encoding="UTF-8" standalone="no"?>
<!DOCTYPE svg PUBLIC "-//W3C//DTD SVG 1.1//EN"
 "http://www.w3.org/Graphics/SVG/1.1/DTD/svg11.dtd">
<!-- Generated by graphviz version 10.0.1 (0)
 -->
<!-- Title: nixstore Pages: 1 -->
<svg width="1177pt" height="690pt"
 viewBox="0.00 0.00 1177.15 690.00" xmlns="http://www.w3.org/2000/svg" xmlns:xlink="http://www.w3.org/1999/xlink">
<g id="graph0" class="graph" transform="scale(1 1) rotate(0) translate(4 686)">
<title>nixstore</title>
<polygon fill="white" stroke="none" points="-4,4 -4,-686 1173.15,-686 1173.15,4 -4,4"/>
<!-- N11 -->
<g id="node1" class="node">
<title>N11</title>
<polygon fill="#38276d" stroke="#38276d" points="592.07,-298.54 592.07,-313.46 514.24,-324 404.16,-324 326.33,-313.46 326.33,-298.54 404.16,-288 514.24,-288 592.07,-298.54"/>
<polygon fill="none" stroke="#38276d" points="596.07,-295.05 596.07,-316.95 514.51,-328 403.89,-328 322.33,-316.95 322.33,-295.05 403.89,-284 514.51,-284 596.07,-295.05"/>
<polygon fill="none" stroke="#38276d" points="600.07,-291.55 600.07,-320.45 514.78,-332 403.62,-332 318.33,-320.45 318.33,-291.55 403.62,-280 514.78,-280 600.07,-291.55"/>
<text text-anchor="middle" x="459.2" y="-301.32" font-family="Times,serif" font-size="14.00" fill="#ffffff">{transient} (14.7 MB)</text>
</g>
<!-- N2 -->
<g id="node11" class="node">
<title>N2</title>
<polygon fill="#980e01" stroke="#980e01" points="1154.9,-429 968.65,-429 968.65,-393 1154.9,-393 1154.9,-429"/>
<text text-anchor="middle" x="1061.77" y="-406.32" font-family="Times,serif" font-size="14.00" fill="#ffffff">mtools&#45;4.0.44 (14.0 GB)</text>
</g>
<!-- N11&#45;&gt;N2 -->
<g id="edge9" class="edge">
<title>N11&#45;&gt;N2</title>
<path fill="none" stroke="black" d="M600.38,-303.04C692.31,-304.41 814.31,-312.57 918.4,-341 955.44,-351.11 994.35,-370.97 1022.11,-386.95"/>
<polygon fill="black" stroke="black" points="1020.11,-389.84 1030.51,-391.88 1023.65,-383.8 1020.11,-389.84"/>
</g>
<!-- N3 -->
<g id="node12" class="node">
<title>N3</title>
<polygon fill="#ba1e02" stroke="#ba1e02" points="1169.15,-184 954.4,-184 954.4,-148 1169.15,-148 1169.15,-184"/>
<text text-anchor="middle" x="1061.77" y="-161.32" font-family="Times,serif" font-size="14.00" fill="#ffffff">home&#45;manager.sh (12.7 GB)</text>
</g>
<!-- N11&#45;&gt;N3 -->
<g id="edge8" class="edge">
<title>N11&#45;&gt;N3</title>
<path fill="none" stroke="black" d="M600.55,-315.05C693.51,-316.33 816.6,-308.83 918.4,-271 964.38,-253.91 1008.4,-217.28 1035.02,-192.13"/>
<polygon fill="black" stroke="black" points="1037.16,-194.93 1041.94,-185.47 1032.31,-189.89 1037.16,-194.93"/>
</g>
<!-- N10 -->
<g id="node2" class="node">
<title>N10</title>
<polygon fill="#30123b" stroke="#30123b" points="905.84,-228.54 905.84,-243.46 644.21,-254 274.19,-254 12.56,-243.46 12.56,-228.54 274.19,-218 644.21,-218 905.84,-228.54"/>
<polygon fill="none" stroke="#30123b" points="909.84,-224.7 909.84,-247.3 644.29,-258 274.11,-258 8.56,-247.3 8.56,-224.7 274.11,-214 644.29,-214 909.84,-224.7"/>
<polygon fill="none" stroke="#30123b" points="913.84,-220.86 913.84,-251.14 644.37,-262 274.03,-262 4.56,-251.14 4.56,-220.86 274.03,-210 644.37,-210 913.84,-220.86"/>
<text text-anchor="middle" x="459.2" y="-231.32" font-family="Times,serif" font-size="14.00" fill="#ffffff">/home/soliprem/.local/state/home&#45;manager/gcroots/current&#45;home, 1m ago (61 B)</text>
</g>
<!-- N10&#45;&gt;N3 -->
<g id="edge7" class="edge">
<title>N10&#45;&gt;N3</title>
<path fill="none" stroke="black" d="M803.7,-215.95C842.5,-211.85 881.37,-206.92 918.4,-201 940.02,-197.54 963.18,-192.46 984.41,-187.23"/>
<polygon fill="black" stroke="black" points="985,-190.69 993.85,-184.86 983.3,-183.9 985,-190.69"/>
</g>
<!-- N9 -->
<g id="node3" class="node">
<title>N9</title>
<polygon fill="#351e58" stroke="#351e58" points="910.4,-158.54 910.4,-173.46 646.09,-184 272.31,-184 8,-173.46 8,-158.54 272.31,-148 646.09,-148 910.4,-158.54"/>
<polygon fill="none" stroke="#351e58" points="914.4,-154.7 914.4,-177.3 646.17,-188 272.23,-188 4,-177.3 4,-154.7 272.23,-144 646.17,-144 914.4,-154.7"/>
<polygon fill="none" stroke="#351e58" points="918.4,-150.86 918.4,-181.14 646.25,-192 272.15,-192 0,-181.14 0,-150.86 272.15,-140 646.25,-140 918.4,-150.86"/>
<text text-anchor="middle" x="459.2" y="-161.32" font-family="Times,serif" font-size="14.00" fill="#ffffff">/home/soliprem/.local/state/nix/profiles/home&#45;manager&#45;139&#45;link, 1m ago (5.2 MB)</text>
</g>
<!-- N9&#45;&gt;N3 -->
<g id="edge6" class="edge">
<title>N9&#45;&gt;N3</title>
<path fill="none" stroke="black" d="M918.83,-166C927.02,-166 934.99,-166 942.7,-166"/>
<polygon fill="black" stroke="black" points="942.69,-169.5 952.69,-166 942.69,-162.5 942.69,-169.5"/>
</g>
<!-- N1 -->
<g id="node4" class="node">
<title>N1</title>
<polygon fill="#7a0403" stroke="#7a0403" points="677.49,-578.54 677.49,-593.46 549.62,-604 368.78,-604 240.91,-593.46 240.91,-578.54 368.78,-568 549.62,-568 677.49,-578.54"/>
<polygon fill="none" stroke="#7a0403" points="681.49,-574.86 681.49,-597.14 549.78,-608 368.62,-608 236.91,-597.14 236.91,-574.86 368.62,-564 549.78,-564 681.49,-574.86"/>
<polygon fill="none" stroke="#7a0403" points="685.49,-571.18 685.49,-600.82 549.95,-612 368.45,-612 232.91,-600.82 232.91,-571.18 368.45,-560 549.95,-560 685.49,-571.18"/>
<text text-anchor="middle" x="459.2" y="-581.33" font-family="Times,serif" font-size="14.00" fill="#ffffff">NixOS generation 61, today (15.1 GB)</text>
</g>
<!-- N8 -->
<g id="node5" class="node">
<title>N8</title>
<polygon fill="#fd8b26" stroke="#fd8b26" points="834.66,-88.54 834.66,-103.46 614.72,-114 303.68,-114 83.74,-103.46 83.74,-88.54 303.68,-78 614.72,-78 834.66,-88.54"/>
<polygon fill="none" stroke="#fd8b26" points="838.66,-84.73 838.66,-107.27 614.82,-118 303.58,-118 79.74,-107.27 79.74,-84.73 303.58,-74 614.82,-74 838.66,-84.73"/>
<polygon fill="none" stroke="#fd8b26" points="842.66,-80.92 842.66,-111.08 614.91,-122 303.49,-122 75.74,-111.08 75.74,-80.92 303.49,-70 614.91,-70 842.66,-80.92"/>
<text text-anchor="middle" x="459.2" y="-91.33" font-family="Times,serif" font-size="14.00" fill="#000000">/tmp/home&#45;manager&#45;build.Jqpk02tiDQ/generation, 1m ago (8.2 GB)</text>
</g>
<!-- N8&#45;&gt;N3 -->
<g id="edge5" class="edge">
<title>N8&#45;&gt;N3</title>
<path fill="none" stroke="black" d="M786.38,-114.27C830.88,-118.7 875.86,-124.19 918.4,-131 940.02,-134.46 963.18,-139.54 984.41,-144.77"/>
<polygon fill="black" stroke="black" points="983.3,-148.1 993.85,-147.14 985,-141.31 983.3,-148.1"/>
</g>
<!-- N7 -->
<g id="node6" class="node">
<title>N7</title>
<polygon fill="#30123b" stroke="#30123b" points="653.01,-508.54 653.01,-523.46 539.48,-534 378.92,-534 265.39,-523.46 265.39,-508.54 378.92,-498 539.48,-498 653.01,-508.54"/>
<polygon fill="none" stroke="#30123b" points="657.01,-504.9 657.01,-527.1 539.66,-538 378.74,-538 261.39,-527.1 261.39,-504.9 378.74,-494 539.66,-494 657.01,-504.9"/>
<polygon fill="none" stroke="#30123b" points="661.01,-501.25 661.01,-530.75 539.85,-542 378.55,-542 257.39,-530.75 257.39,-501.25 378.55,-490 539.85,-490 661.01,-501.25"/>
<text text-anchor="middle" x="459.2" y="-511.32" font-family="Times,serif" font-size="14.00" fill="#ffffff">/run/current&#45;system, today (19 B)</text>
</g>
<!-- N7&#45;&gt;N2 -->
<g id="edge4" class="edge">
<title>N7&#45;&gt;N2</title>
<path fill="none" stroke="black" d="M661.48,-517.09C742.49,-513.29 836.05,-503.49 918.4,-481 955.44,-470.89 994.35,-451.03 1022.11,-435.05"/>
<polygon fill="black" stroke="black" points="1023.65,-438.2 1030.51,-430.12 1020.11,-432.16 1023.65,-438.2"/>
</g>
<!-- N6 -->
<g id="node7" class="node">
<title>N6</title>
<polygon fill="#30123b" stroke="#30123b" points="649.59,-438.54 649.59,-453.46 538.06,-464 380.34,-464 268.81,-453.46 268.81,-438.54 380.34,-428 538.06,-428 649.59,-438.54"/>
<polygon fill="none" stroke="#30123b" points="653.59,-434.9 653.59,-457.1 538.25,-468 380.15,-468 264.81,-457.1 264.81,-434.9 380.15,-424 538.25,-424 653.59,-434.9"/>
<polygon fill="none" stroke="#30123b" points="657.59,-431.26 657.59,-460.74 538.44,-472 379.96,-472 260.81,-460.74 260.81,-431.26 379.96,-420 538.44,-420 657.59,-431.26"/>
<text text-anchor="middle" x="459.2" y="-441.32" font-family="Times,serif" font-size="14.00" fill="#ffffff">/run/booted&#45;system, today (18 B)</text>
</g>
<!-- N6&#45;&gt;N2 -->
<g id="edge3" class="edge">
<title>N6&#45;&gt;N2</title>
<path fill="none" stroke="black" d="M657.68,-434.49C757.6,-428.67 874.79,-421.84 956.97,-417.05"/>
<polygon fill="black" stroke="black" points="957.04,-420.55 966.82,-416.48 956.63,-413.56 957.04,-420.55"/>
</g>
<!-- N5 -->
<g id="node8" class="node">
<title>N5</title>
<polygon fill="#19d4cf" stroke="#19d4cf" points="680.34,-368.54 680.34,-383.46 550.8,-394 367.6,-394 238.06,-383.46 238.06,-368.54 367.6,-358 550.8,-358 680.34,-368.54"/>
<polygon fill="none" stroke="#19d4cf" points="684.34,-364.86 684.34,-387.14 550.96,-398 367.44,-398 234.06,-387.14 234.06,-364.86 367.44,-354 550.96,-354 684.34,-364.86"/>
<polygon fill="none" stroke="#19d4cf" points="688.34,-361.17 688.34,-390.83 551.12,-402 367.28,-402 230.06,-390.83 230.06,-361.17 367.28,-350 551.12,-350 688.34,-361.17"/>
<text text-anchor="middle" x="459.2" y="-371.32" font-family="Times,serif" font-size="14.00" fill="#000000">NixOS generation 60, 1m ago (1.3 GB)</text>
</g>
<!-- N5&#45;&gt;N2 -->
<g id="edge2" class="edge">
<title>N5&#45;&gt;N2</title>
<path fill="none" stroke="black" d="M688.54,-389.31C781.13,-394.7 883.41,-400.66 957.29,-404.97"/>
<polygon fill="black" stroke="black" points="956.75,-408.44 966.93,-405.53 957.15,-401.46 956.75,-408.44"/>
</g>
<!-- N4 -->
<g id="node9" class="node">
<title>N4</title>
<polygon fill="#d63506" stroke="#d63506" points="760.06,-18.54 760.06,-33.46 583.82,-44 334.58,-44 158.34,-33.46 158.34,-18.54 334.58,-8 583.82,-8 760.06,-18.54"/>
<polygon fill="none" stroke="#d63506" points="764.06,-14.78 764.06,-37.22 583.94,-48 334.46,-48 154.34,-37.22 154.34,-14.78 334.46,-4 583.94,-4 764.06,-14.78"/>
<polygon fill="none" stroke="#d63506" points="768.06,-11.01 768.06,-40.99 584.06,-52 334.34,-52 150.34,-40.99 150.34,-11.01 334.34,0 584.06,0 768.06,-11.01"/>
<text text-anchor="middle" x="459.2" y="-21.32" font-family="Times,serif" font-size="14.00" fill="#ffffff">generation 96 of soliprem&#39;s profile, 1m ago (11.3 GB)</text>
</g>
<!-- N4&#45;&gt;N3 -->
<g id="edge1" class="edge">
<title>N4&#45;&gt;N3</title>
<path fill="none" stroke="black" d="M768.48,-25.83C819.61,-32.48 871.29,-43.49 918.4,-61 964.38,-78.09 1008.4,-114.72 1035.02,-139.87"/>
<polygon fill="black" stroke="black" points="1032.31,-142.11 1041.94,-146.53 1037.16,-137.07 1032.31,-142.11"/>
</g>
<!-- N12 -->
<g id="node10" class="node">
<title>N12</title>
<polygon fill="#434cb6" stroke="#434cb6" points="602.89,-648.54 602.89,-663.46 518.72,-674 399.68,-674 315.51,-663.46 315.51,-648.54 399.68,-638 518.72,-638 602.89,-648.54"/>
<polygon fill="none" stroke="#434cb6" points="606.89,-645.01 606.89,-666.99 518.97,-678 399.43,-678 311.51,-666.99 311.51,-645.01 399.43,-634 518.97,-634 606.89,-645.01"/>
<polygon fill="none" stroke="#434cb6" points="610.89,-641.48 610.89,-670.52 519.22,-682 399.18,-682 307.51,-670.52 307.51,-641.48 399.18,-630 519.22,-630 610.89,-641.48"/>
<text text-anchor="middle" x="459.2" y="-651.33" font-family="Times,serif" font-size="14.00" fill="#ffffff">{filtered out} (98.8 MB)</text>
</g>
</g>
</svg>
